<svg id="Layer_1" data-name="Layer 1" xmlns="http://www.w3.org/2000/svg" viewBox="0 0 128 128"><title>CHILD</title><path d="M82.581,71.27a27.547,27.547,0,0,0,8.959-18.6,7.935,7.935,0,0,0-.082-15.526A27.642,27.642,0,0,0,64.084,12.4h-.005L64,12.4A27.645,27.645,0,0,0,36.542,37.145a7.935,7.935,0,0,0-.082,15.526,27.547,27.547,0,0,0,8.959,18.6A24.964,24.964,0,0,0,21.25,96.19v17.66a1.75,1.75,0,0,0,3.5,0v-7.42h15v7.424a1.75,1.75,0,0,0,3.5,0V95.5a1.75,1.75,0,0,0-3.5,0v7.43h-15V96.19A21.464,21.464,0,0,1,46.19,74.75h3.984q.6.351,1.228.673a13.075,13.075,0,0,0,25.2,0q.622-.321,1.227-.672H81.81a21.464,21.464,0,0,1,21.44,21.44v6.74h-15V95.5a1.75,1.75,0,0,0-3.5,0v18.354a1.75,1.75,0,0,0,3.5,0V106.43h15v7.42a1.75,1.75,0,0,0,3.5,0V96.19A24.964,24.964,0,0,0,82.581,71.27ZM94.292,44.919a4.442,4.442,0,0,1-2.687,4.074V40.845A4.442,4.442,0,0,1,94.292,44.919Zm-60.584,0A4.442,4.442,0,0,1,36.4,40.845v8.148A4.442,4.442,0,0,1,33.708,44.919ZM39.9,50.872V40A24.142,24.142,0,0,1,58.612,16.511c-2.058,2.373-3.893,5.717-3.154,9.694a9.418,9.418,0,0,0,6.782,7.479,10.29,10.29,0,0,0,2.814.4,8.421,8.421,0,0,0,6.266-2.575,6.545,6.545,0,0,0,.552-8.328,5.821,5.821,0,0,0-7.536-1.512,1.75,1.75,0,1,0,1.549,3.139,2.377,2.377,0,0,1,3.189.475,3.005,3.005,0,0,1-.339,3.866A5.539,5.539,0,0,1,63.2,30.317a5.925,5.925,0,0,1-4.3-4.753c-.886-4.762,4.139-8.635,5.609-9.655A24.129,24.129,0,0,1,88.105,40v10.87A24.132,24.132,0,0,1,74.5,72.568a1.8,1.8,0,0,0-.222.1,24.094,24.094,0,0,1-34.38-21.8ZM64,81.5a9.618,9.618,0,0,1-7.9-4.181,27.519,27.519,0,0,0,15.808,0A9.616,9.616,0,0,1,64,81.5Z"/><path d="M51.084,48.581a4.13,4.13,0,1,0-4.129-4.129A4.133,4.133,0,0,0,51.084,48.581Z"/><path d="M76.916,48.581a4.13,4.13,0,1,0-4.129-4.129A4.133,4.133,0,0,0,76.916,48.581Z"/><path d="M52.834,54.028a1.75,1.75,0,1,0-3.5,0c0,4.918,6.442,8.77,14.666,8.77s14.666-3.852,14.666-8.77a1.75,1.75,0,1,0-3.5,0c0,2.493-4.586,5.27-11.166,5.27S52.834,56.521,52.834,54.028Z"/></svg>