<?xml version="1.0" encoding="UTF-8"?>
<!DOCTYPE svg PUBLIC "-//W3C//DTD SVG 1.1//EN" "http://www.w3.org/Graphics/SVG/1.1/DTD/svg11.dtd">
<!-- Creator: CorelDRAW -->
<svg xmlns="http://www.w3.org/2000/svg" xml:space="preserve" width="2048px" height="2048px" style="shape-rendering:geometricPrecision; text-rendering:geometricPrecision; image-rendering:optimizeQuality; fill-rule:evenodd; clip-rule:evenodd"
viewBox="0 0 2048 2048"
 xmlns:xlink="http://www.w3.org/1999/xlink">
 <defs>
  <style type="text/css">
   <![CDATA[
    .fil2 {fill:none}
    .fil1 {fill:#212121}
    .fil0 {fill:#212121;fill-rule:nonzero}
   ]]>
  </style>
 </defs>
 <g id="Layer_x0020_1">
  <metadata id="CorelCorpID_0Corel-Layer"/>
  <path class="fil0" d="M744.43 532.546c-17.6728,0 -32.0008,14.328 -32.0008,32.0008 0,17.6728 14.328,32.0008 32.0008,32.0008l560.171 0c17.6728,0 32.0008,-14.328 32.0008,-32.0008 0,-17.6728 -14.328,-32.0008 -32.0008,-32.0008l-560.171 0zm735.296 0c-17.6728,0 -32.0008,14.328 -32.0008,32.0008 0,17.6728 14.328,32.0008 32.0008,32.0008l118.09 0c35.7674,0 68.3067,14.6551 91.9182,38.2654 23.6091,23.6091 38.2654,56.1496 38.2654,91.917l0 825.634c0,35.7674 -14.6563,68.3091 -38.2654,91.9182 -23.6103,23.6103 -56.1508,38.2666 -91.9182,38.2666l-1147.63 0c-35.7674,0 -68.3079,-14.6563 -91.9182,-38.2666 -23.6091,-23.6091 -38.2654,-56.1508 -38.2654,-91.9182l0 -825.634c0,-35.7674 14.6563,-68.3079 38.2654,-91.917 23.6114,-23.6103 56.1508,-38.2654 91.9182,-38.2654l117.983 0c17.6728,0 32.0008,-14.328 32.0008,-32.0008 0,-17.6728 -14.328,-32.0008 -32.0008,-32.0008l-117.983 0c-53.4331,0 -101.988,21.8374 -137.169,57.0166 -35.1792,35.1792 -57.0166,83.7343 -57.0166,137.167l0 825.634c0,53.4331 21.8374,101.989 57.0166,137.169 35.1803,35.1803 83.7355,57.0178 137.169,57.0178l1147.63 0c53.4331,0 101.988,-21.8374 137.169,-57.0178 35.1792,-35.1792 57.0166,-83.7355 57.0166,-137.169l0 -825.634c0,-53.4331 -21.8374,-101.988 -57.0166,-137.167 -35.1803,-35.1792 -83.7355,-57.0166 -137.169,-57.0166l-118.09 0z"/>
  <path class="fil0" d="M287.999 866.036c-17.6728,0 -32.0008,14.328 -32.0008,32.0008 0,17.6728 14.328,32.0008 32.0008,32.0008l1472 0c17.6728,0 32.0008,-14.328 32.0008,-32.0008 0,-17.6728 -14.328,-32.0008 -32.0008,-32.0008l-1472 0z"/>
  <path class="fil0" d="M656 301.449l0.0011811 0c32.928,0 62.8418,13.448 84.5068,35.113 21.6638,21.665 35.113,51.5788 35.113,84.5068l0 280.382c0,32.928 -13.4492,62.8418 -35.113,84.5068 -21.665,21.6638 -51.5788,35.113 -84.5068,35.113l-0.0011811 0c-32.928,0 -62.8418,-13.4492 -84.5068,-35.113 -21.665,-21.665 -35.113,-51.5788 -35.113,-84.5068l0 -280.382c0,-32.928 13.448,-62.8418 35.113,-84.5068 21.665,-21.665 51.5788,-35.113 84.5068,-35.113zm0.0011811 64.0016l-0.0011811 0c-15.2622,0 -29.1614,6.26693 -39.2563,16.3618 -10.0949,10.0949 -16.3618,23.9941 -16.3618,39.2563l0 280.382c0,15.2622 6.26693,29.1614 16.3618,39.2563 10.0949,10.0949 23.9953,16.3618 39.2563,16.3618l0.0011811 0c15.2622,0 29.1614,-6.26693 39.2563,-16.3618 10.0949,-10.0949 16.3618,-23.9941 16.3618,-39.2563l0 -280.382c0,-15.261 -6.26693,-29.1614 -16.3618,-39.2563 -10.0949,-10.0949 -23.9941,-16.3618 -39.2563,-16.3618z"/>
  <path class="fil0" d="M1392 301.449l0.0011811 0c32.928,0 62.8418,13.448 84.5068,35.113 21.665,21.665 35.113,51.5788 35.113,84.5068l0 280.382c0,32.928 -13.448,62.8418 -35.113,84.5068 -21.665,21.6638 -51.5788,35.113 -84.5068,35.113l-0.0011811 0c-32.928,0 -62.8418,-13.448 -84.5056,-35.113 -21.665,-21.665 -35.113,-51.5788 -35.113,-84.5068l0 -280.382c0,-32.928 13.448,-62.8418 35.113,-84.5068 21.6638,-21.665 51.5776,-35.113 84.5056,-35.113zm0.0011811 64.0016l-0.0011811 0c-15.2622,0 -29.1614,6.26693 -39.2551,16.3618 -10.0949,10.0949 -16.3618,23.9941 -16.3618,39.2563l0 280.382c0,15.2622 6.26693,29.1614 16.3618,39.2563 10.0937,10.0949 23.9929,16.3618 39.2551,16.3618l0.0011811 0c15.261,0 29.1614,-6.26693 39.2563,-16.3618 10.0949,-10.0949 16.3618,-23.9941 16.3618,-39.2563l0 -280.382c0,-15.2622 -6.26693,-29.1614 -16.3618,-39.2563 -10.0949,-10.0949 -23.9941,-16.3618 -39.2563,-16.3618z"/>
  <path class="fil1" d="M789.138 1448.26l214.439 0 0 69.3249 -314.355 0 -0.244488 -7.74804c-0.45,-14.3008 1.87559,-28.1988 6.92953,-41.5748 8.69292,-23.0055 21.9933,-43.8355 37.8862,-62.5182 21.4347,-25.1965 48.0591,-48.4276 73.5945,-69.3686 20.9528,-17.1827 41.7296,-34.9394 61.2756,-53.7178 12.9142,-12.4075 26.3398,-26.0799 36.952,-40.5426 13.0429,-17.7756 24.3248,-39.3756 24.3248,-61.9512 0,-19.6984 -6.87756,-36.2162 -21.1004,-49.8685 -15.4217,-14.8016 -34.8898,-20.3847 -55.9902,-20.3847 -22.1504,0 -42.5032,5.84882 -58.3973,21.7429 -16.3713,16.3725 -21.8906,38.25 -22.0583,60.8752l-0.0649607 8.78623 -73.6288 -7.47166 0.720473 -7.88623c3.57402,-39.1264 16.5862,-76.1422 46.7646,-102.58 30.1075,-26.3752 68.6965,-35.4296 107.927,-35.4296 40.1622,0 78.7028,10.0854 108.374,38.2772 27.1618,25.8059 40.4599,57.776 40.4599,95.2016 0,19.5603 -4.14331,38.4567 -11.7862,56.452 -8.90788,20.9776 -23.1307,40.3418 -38.1945,57.3 -10.8614,12.2268 -22.8012,23.8016 -34.767,34.9394 -16.7504,15.5906 -34.0748,30.6319 -51.5681,45.3792 -13.7008,11.55 -27.3685,23.1815 -40.7681,35.0799 -7.62638,6.77245 -15.6142,13.8366 -22.6488,21.2232 -4.97126,5.22048 -9.71221,10.7008 -14.0752,16.4599zm498.152 -185.431c18.926,7.3004 35.2996,18.8847 48.0685,35.654 17.1874,22.5685 23.7236,49.5981 23.7236,77.6292 0,41.8111 -15.3602,77.2713 -45.6,106.129 -31.7516,30.3012 -70.9678,43.337 -114.593,43.337 -39.1559,0 -74.8453,-11.1095 -104.12,-37.5036 -28.611,-25.7953 -43.6748,-58.7599 -47.4118,-96.9851l-0.752363 -7.69134 70.4894 -9.36142 1.49173 7.31339c4.49055,22.0099 12.8847,48.0579 30.0378,63.6201 14.3315,13.0016 31.2933,18.75 50.5807,18.75 23.6327,0 43.8083,-7.95355 60.476,-24.7677 16.8756,-17.0244 24.6071,-37.6677 24.6071,-61.578 0,-22.1587 -6.71339,-41.6256 -22.5567,-57.3189 -15.9591,-15.8079 -35.5666,-22.5059 -57.8989,-22.5059 -12.1287,0 -25.4067,2.86299 -37.0878,5.94095l-11.4744 3.02362 8.70355 -68.3008 7.84607 0.896457c2.63032,0.3 5.38111,0.578741 8.0315,0.578741 21.4949,0 41.3551,-5.50276 59.38,-17.2193 17.9728,-11.6823 24.7571,-29.2748 24.7571,-50.2996 0,-17.4437 -5.63977,-32.5276 -18.2776,-44.7319 -13.2095,-12.7547 -29.5666,-17.8429 -47.7685,-17.8429 -18.4465,0 -34.865,5.41418 -48.3674,18.1252 -15.3921,14.4886 -22.265,36.124 -25.3418,56.4792l-1.22835 8.12245 -71.4095 -12.737 1.42677 -7.89095c6.38859,-35.3398 21.1347,-67.5875 48.867,-91.1327 27.0685,-22.9819 59.6209,-32.6138 94.8969,-32.6138 25.1162,0 49.2981,5.33504 71.6859,16.7563 21.1311,10.7799 38.6244,25.9536 50.8678,46.3406 11.5276,19.1941 17.6551,39.9886 17.6551,62.3882 0,20.8866 -5.62914,40.2402 -17.0858,57.7122 -8.5689,13.0677 -19.7705,23.4532 -32.6185,31.6843z"/>
 </g>
 <rect class="fil2" width="2048" height="2048"/>
</svg>
