<?xml version="1.0" encoding="UTF-8"?>
<!DOCTYPE svg PUBLIC "-//W3C//DTD SVG 1.1//EN" "http://www.w3.org/Graphics/SVG/1.1/DTD/svg11.dtd">
<!-- Creator: CorelDRAW -->
<svg xmlns="http://www.w3.org/2000/svg" xml:space="preserve" width="6.82666in" height="6.82666in" style="shape-rendering:geometricPrecision; text-rendering:geometricPrecision; image-rendering:optimizeQuality; fill-rule:evenodd; clip-rule:evenodd"
viewBox="0 0 6.82666 6.82666"
 xmlns:xlink="http://www.w3.org/1999/xlink">
 <defs>
  <style type="text/css">
   <![CDATA[
    .str0 {stroke:#212121;stroke-width:0.213335}
    .fil0 {fill:none}
    .fil1 {fill:#212121;fill-rule:nonzero}
   ]]>
  </style>
 </defs>
 <g id="Layer_x0020_1">
  <metadata id="CorelCorpID_0Corel-Layer"/>
  <g id="_259685992">
   <circle id="_259685656" class="fil0 str0" cx="3.41333" cy="3.41333" r="2.45333"/>
   <polygon id="_259686064" class="fil1" points="5.21952,1.75797 1.75797,5.21952 1.60714,5.06869 5.06869,1.60714 "/>
   <path id="_259686040" class="fil1" d="M1.5143 2.76144c0.167016,-0.0985906 0.256661,-0.152831 0.313815,-0.22478 0.0574724,-0.0723543 0.0893071,-0.171394 0.141827,-0.361043l0.051248 0.0141654 -0.0513976 -0.0142362c0.00550394,-0.0198661 0.0215472,-0.0339724 0.0404134,-0.0379606l0.0622165 -0.0174409 0.014374 0.051248 -0.0143937 -0.0513543c0.0219567,-0.00615354 0.0445551,0.00237795 0.0573307,0.0197008l0.571504 0.657437c0.0278425,0.0179843 0.0441063,0.0286024 0.0586142,0.0380827 0.156339,0.10213 0.166563,0.108795 0.396098,0.141291 0.0473937,-1.9685e-005 0.12302,0.000283465 0.214224,0.000649606 0.0543189,0.000216535 0.114224,0.000452756 0.176941,0.000661417l-0.10587 0.10587 -0.0714882 -0.000279528c-0.0907992,-0.000362205 -0.16615,-0.000665354 -0.213276,-0.000649606 -0.00401969,0.000366142 -0.00814961,0.000275591 -0.0123189,-0.000314961l1.5748e-005 -0.000122047c-0.256378,-0.036252 -0.267138,-0.0432795 -0.442657,-0.157941 -0.0215315,-0.0140669 -0.0449843,-0.0293898 -0.0611811,-0.0398622 -0.00531102,-0.00293701 -0.0102008,-0.00683858 -0.0144134,-0.0116811l0.040252 -0.0349882 -0.0402087 0.0347913 -0.557185 -0.640965 -0.0044252 0.00124016c-0.0519016,0.185362 -0.0869055,0.286854 -0.152913,0.369953 -0.0664252,0.083622 -0.157693,0.140638 -0.323185,0.238504 -0.012252,0.117335 0.0101654,0.177228 0.0579409,0.198248 0.0599094,0.0263583 0.16176,0.00853937 0.288461,-0.030811 0.00655118,-0.00248425 0.0137008,-0.0037126 0.0211457,-0.00339764l-7.87402e-006 0.000165354 0.0786654 0.00333465c0.010937,-0.000409449 0.0220945,0.00252362 0.0318504,0.00912992l-0.0298976 0.0441654 0.0297913 -0.0439567 0.104327 0.070626c0.0155039,0.00851181 0.026437,0.0245394 0.0276063,0.0434961l-0.0532323 0.00328346 0.053126 -0.00312598c0.00288583,0.0468031 0.00845276,0.114224 0.0148425,0.191669 0.0213346,0.258551 0.0519134,0.629394 0.0344528,0.953402l-0.112059 0.112059c0.0310039,-0.333449 -0.00482677,-0.768059 -0.0286457,-1.05671 -0.00514961,-0.0623976 -0.00973228,-0.117937 -0.0131378,-0.16798l-0.0742638 -0.0502756 -0.0585197 -0.00248031c-0.147224,0.0452087 -0.27074,0.0630394 -0.357417,0.0249055 -0.0976496,-0.0429646 -0.143445,-0.14452 -0.11737,-0.335343l0.0527087 0.00708268 -0.0528425 -0.00722047c0.00244882,-0.0179291 0.0135512,-0.0325512 0.0285157,-0.0402402zm2.63713 0.215465c0.102917,-0.00117323 0.183134,-0.00316142 0.220264,-0.00640157 0.182181,-0.0158937 0.290016,0.0879724 0.399874,0.193791 0.153791,0.148134 0.312362,0.300866 0.74426,-0.00762992 0.0210512,-0.0150394 0.0406535,-0.0203819 0.0584685,-0.0175197 0.0473189,0.0076378 0.0604449,0.0415276 0.0445394,0.0939449 -0.00583465,0.0192165 -0.0169528,0.0441969 -0.0321063,0.0722047 -0.0630472,0.116547 -0.207075,0.308366 -0.337567,0.369492 -0.338846,0.158732 -0.570591,-0.0934173 -0.722075,-0.258252 -0.0236929,-0.0257795 -0.045063,-0.0490315 -0.0630079,-0.0666772 0.0815591,0.193953 0.200799,0.623169 0.255248,0.980894 0.0223661,0.146976 0.0340591,0.283197 0.0281417,0.38822 -0.00690157,0.122567 -0.040185,0.208559 -0.110346,0.234028 -0.0164016,0.00595276 -0.0340551,0.00831102 -0.0530157,0.00679528 -0.0278976,0.000110236 -0.0529921,0.00162205 -0.0744409,0.00291339 -0.0926457,0.00558268 -0.129409,0.00779921 -0.224685,-0.0818858l0.0364567 -0.038748 -0.0365551 0.0388346c-0.0214449,-0.020185 -0.0224646,-0.0539449 -0.00227953,-0.0753898 0.000909449,-0.000964567 0.00184646,-0.00188583 0.00280709,-0.00276772 0.141193,-0.157724 0.0343465,-0.42987 -0.0558346,-0.659492l-0.00892913 -0.0227598c-0.0100157,0.127343 -0.027752,0.272508 -0.0562126,0.409441 -0.0331693,0.159575 -0.0812717,0.309343 -0.149362,0.410681l-0.0441654 -0.0295827 0.0442677 0.0297441c-0.0112047,0.0166772 -0.030189,0.025 -0.0488858,0.0233937 -0.208854,0.000484252 -0.272846,-0.0146024 -0.273134,-0.101776 -0.000102362,-0.0312402 0.0133937,-0.0633661 0.0321654,-0.108047 0.032374,-0.0770394 0.0834055,-0.198512 0.0929252,-0.387299l-0.127811 -0.352799c-0.0961181,-0.152453 -0.273004,-0.150028 -0.466618,-0.109736l0.128413 -0.128413c0.172638,-0.0159843 0.326858,0.0186575 0.429118,0.182839 0.00298031,0.00403543 0.00544094,0.00856693 0.00723622,0.0135236l-0.000137795 5.11811e-005 0.132008 0.364378c0.00333465,0.00735433 0.00503937,0.0155827 0.0046811,0.0242047l-0.000169291 -7.87402e-006c-0.00901181,0.214843 -0.0656339,0.349594 -0.101315,0.434512 -0.0141181,0.0336102 -0.0242717,0.0577756 -0.0242441,0.0667953 7.87402e-006,0.0030748 0.0339961,-0.00294094 0.14198,-0.00425984 0.0520591,-0.0883425 0.0907441,-0.214496 0.118882,-0.34987 0.0436732,-0.210106 0.0612638,-0.43972 0.064374,-0.589154 -0.00131102,-0.0193976 0.00807087,-0.0388228 0.0259134,-0.0494567l8.66142e-005 0.000145669 0.00664961 -0.00396457c0.000574803,-0.000409449 0.00116142,-0.000807087 0.00175591,-0.00119291 0.0246969,-0.0160433 0.0577323,-0.00902362 0.0737756,0.0156732l-0.0273228 0.017748 3.93701e-006 0 0.0271772 -0.0176535 0.0243504 0.0374882c0.00369685,0.00477165 0.00664173,0.010248 0.00859843,0.0163268l-0.0353583 0.0113858 0 1.5748e-005 0.0352165 -0.0113031c0.016311,0.0506614 0.0392244,0.109 0.063252,0.170181 0.0949488,0.241756 0.206354,0.525528 0.0664449,0.730031 0.0372638,0.0261811 0.0619921,0.0247008 0.108228,0.0219134 0.0210197,-0.00126378 0.0455551,-0.00274803 0.0783228,-0.00290551 0.00329528,-0.000299213 0.00666535,-0.00030315 0.0100787,2.75591e-005l-1.5748e-005 0.000177165c0.00374409,0.000346457 0.00675984,7.87402e-005 0.00907087,-0.000755906 0.0234409,-0.00850787 0.0358898,-0.0607402 0.0403465,-0.139862 0.00544882,-0.0966654 -0.00585827,-0.225618 -0.0273071,-0.366551 -0.0605787,-0.397976 -0.200091,-0.881031 -0.273831,-1.01076 -0.00953937,-0.0138071 -0.0124331,-0.0318937 -0.00617717,-0.0488346l7.08661e-005 2.75591e-005c0.0271969,-0.0735157 0.069063,-0.090626 0.125067,-0.0699409 0.0443661,0.016378 0.0899016,0.0659291 0.146378,0.127378 0.130673,0.142189 0.330583,0.359701 0.598744,0.234079 0.0851024,-0.0398661 0.180823,-0.15378 0.245004,-0.251087 -0.409563,0.242618 -0.582854,0.0758071 -0.751346,-0.0864843 -0.0921693,-0.0887795 -0.182646,-0.175925 -0.316961,-0.164209 -0.0500945,0.00437008 -0.178972,0.00648031 -0.336638,0.00735827l0.107209 -0.107209zm-1.29404 1.29404c0.0150118,0.0442953 0.031878,0.0891693 0.048752,0.134043 0.0464331,0.123488 0.092874,0.246992 0.10524,0.367508l0.000137795 -1.5748e-005c0.00138583,0.0135079 -0.00239764,0.0263504 -0.00975197,0.0365709 -0.0653307,0.107323 -0.145417,0.167795 -0.216618,0.187906 -0.0362441,0.0102402 -0.0709409,0.0105591 -0.101622,0.00175197 -0.0332717,-0.00955118 -0.0612756,-0.0293583 -0.0813465,-0.0585354 -0.0282756,-0.0411024 -0.0394055,-0.0999134 -0.0241693,-0.172689l0.0520827 0.0108346 -0.0522008 -0.0109331c0.00456299,-0.0217913 0.0218307,-0.0376614 0.0424409,-0.0415079 0.00443701,-0.0384921 -0.00784252,-0.106728 -0.0285433,-0.189335l0.0867756 -0.0867756c0.0337598,0.125071 0.0559252,0.234575 0.0462087,0.296528 -0.00621654,0.0396457 -0.0213425,0.0669252 -0.0472717,0.0790669 -0.000850394,0.0238228 0.00366142,0.0420236 0.0121732,0.0543937 0.00561417,0.00816535 0.0135472,0.0137402 0.0230157,0.0164567 0.0120591,0.00346063 0.0269528,0.00298031 0.0437087,-0.00175197 0.0456535,-0.0128937 0.0989803,-0.0541339 0.147051,-0.128724 -0.0136772,-0.101921 -0.0552874,-0.212594 -0.0968937,-0.323252 -0.0110394,-0.0293622 -0.0220787,-0.0587244 -0.0326614,-0.0880472l0.0834921 -0.0834921zm-0.436248 0.436248c-0.00382283,0.0419094 -0.00700787,0.0799134 -0.00931102,0.112492l-0.053126 -0.00374803 0.0532008 0.00375984c-0.00101969,0.0144646 -0.00772835,0.0271732 -0.0177717,0.0360984l-0.0141535 0.014622c-0.044815,0.046378 -0.0893819,0.0924961 -0.136858,0.121705 -0.0462638,0.0284646 -0.0922441,0.0424882 -0.137886,0.0309764l0.315906 -0.315906zm-0.0504843 -0.552878c0.0125984,-0.12237 0.0235866,-0.234819 0.0293346,-0.315169 0.000385827,-0.0257992 0.0194843,-0.0482047 0.0458346,-0.0519488 0.0291614,-0.00414173 0.0561614,0.0161417 0.0603031,0.0453031l-9.44882e-005 1.1811e-005c0.00554724,0.0390551 0.0182756,0.0914646 0.0349252,0.1515l-0.170303 0.170303z"/>
  </g>
 </g>
 <rect class="fil0" width="6.82666" height="6.82666"/>
</svg>
